<svg width="30" height="31" viewBox="0 0 30 31" fill="none" xmlns="http://www.w3.org/2000/svg">
<path fill-rule="evenodd" clip-rule="evenodd" d="M30 0.730011H0V30.73H30V0.730011ZM15.8562 24.1675H12.7859V15.7341H11.25V13.099H12.7859V10.9838H12.7915C12.8451 9.15476 13.4629 7.41345 16.4694 7.30432V7.29251H18.391V9.92764H16.8232C16.2543 9.92764 15.8562 10.5739 15.8562 11.1895V13.099H18.6151L18.1596 15.7341H15.8562V24.1675Z" fill="#466BB8"/>
<path d="M12.7859 24.1675H15.8562V15.7341H18.1596L18.6151 13.099H15.8562V11.1895C15.8562 10.5739 16.2543 9.92764 16.8232 9.92764H18.391V7.29251H16.4694V7.30432C13.4629 7.41345 12.8451 9.15476 12.7915 10.9838H12.7859V13.099H11.25V15.7341H12.7859V24.1675Z" fill="white"/>
</svg>
