<svg width="30" height="31" viewBox="0 0 30 31" fill="none" xmlns="http://www.w3.org/2000/svg">
<path d="M0 0.730011H30V30.73H0V0.730011ZM11.9105 8.23001C9.48952 8.23001 7.5 10.2169 7.5 12.6405V18.8195C7.5 21.2405 9.48686 23.23 11.9105 23.23H18.0895C20.5105 23.23 22.5 21.2432 22.5 18.8195V12.6405C22.5 10.2195 20.5131 8.23001 18.0895 8.23001H11.9105ZM11.9105 9.59365H18.0895C19.7754 9.59365 21.1364 10.9546 21.1364 12.6405V18.8195C21.1364 20.5054 19.7754 21.8664 18.0895 21.8664H11.9105C10.2246 21.8664 8.86364 20.5054 8.86364 18.8195V12.6405C8.86364 10.9546 10.2246 9.59365 11.9105 9.59365ZM19.027 11.0851C18.6834 11.0851 18.4091 11.3594 18.4091 11.703C18.4091 12.0466 18.6834 12.3209 19.027 12.3209C19.3706 12.3209 19.6449 12.0466 19.6449 11.703C19.6449 11.3594 19.3706 11.0851 19.027 11.0851ZM15 11.6391C12.7495 11.6391 10.9091 13.4795 10.9091 15.73C10.9091 17.9805 12.7495 19.8209 15 19.8209C17.2505 19.8209 19.0909 17.9805 19.0909 15.73C19.0909 13.4795 17.2505 11.6391 15 11.6391ZM15 13.0027C16.5154 13.0027 17.7273 14.2146 17.7273 15.73C17.7273 17.2455 16.5154 18.4573 15 18.4573C13.4846 18.4573 12.2727 17.2455 12.2727 15.73C12.2727 14.2146 13.4846 13.0027 15 13.0027Z" fill="#466BB8"/>
<path d="M11.9105 8.23001C9.48952 8.23001 7.5 10.2169 7.5 12.6405V18.8195C7.5 21.2405 9.48686 23.23 11.9105 23.23H18.0895C20.5105 23.23 22.5 21.2432 22.5 18.8195V12.6405C22.5 10.2195 20.5131 8.23001 18.0895 8.23001H11.9105ZM11.9105 9.59365H18.0895C19.7754 9.59365 21.1364 10.9546 21.1364 12.6405V18.8195C21.1364 20.5054 19.7754 21.8664 18.0895 21.8664H11.9105C10.2246 21.8664 8.86364 20.5054 8.86364 18.8195V12.6405C8.86364 10.9546 10.2246 9.59365 11.9105 9.59365ZM19.027 11.0851C18.6834 11.0851 18.4091 11.3594 18.4091 11.703C18.4091 12.0466 18.6834 12.3209 19.027 12.3209C19.3706 12.3209 19.6449 12.0466 19.6449 11.703C19.6449 11.3594 19.3706 11.0851 19.027 11.0851ZM15 11.6391C12.7495 11.6391 10.9091 13.4795 10.9091 15.73C10.9091 17.9805 12.7495 19.8209 15 19.8209C17.2505 19.8209 19.0909 17.9805 19.0909 15.73C19.0909 13.4795 17.2505 11.6391 15 11.6391ZM15 13.0027C16.5154 13.0027 17.7273 14.2146 17.7273 15.73C17.7273 17.2455 16.5154 18.4573 15 18.4573C13.4846 18.4573 12.2727 17.2455 12.2727 15.73C12.2727 14.2146 13.4846 13.0027 15 13.0027Z" fill="white"/>
</svg>
