<svg width="188" height="31" viewBox="0 0 188 31" fill="none" xmlns="http://www.w3.org/2000/svg">
<g clip-path="url(#clip0_3_20)">
<path d="M41.6276 17.2394V0.835068H54.4031V4.14079H45.9027V7.47136H52.6632V10.5782H45.9027V13.9337H54.7262V17.2394H41.6276ZM72.2206 17.2394H67.8213L66.6779 13.536H61.0607L59.8925 17.2394H55.5926L61.3589 0.835068H66.4791L72.2206 17.2394ZM61.856 10.6279H65.8826L63.8693 3.99166L61.856 10.6279ZM80.4681 0.586517C81.9927 0.586517 83.3348 0.826782 84.4947 1.30731C85.6712 1.77127 86.6903 2.45892 87.5518 3.37028L85.4889 6.12919C84.7764 5.38354 84.0059 4.82845 83.1773 4.4639C82.3655 4.08279 81.4375 3.89224 80.3936 3.89224C79.7806 3.89224 79.2835 3.95852 78.9023 4.09108C78.5212 4.22363 78.2478 4.40591 78.0821 4.63789C77.9164 4.86986 77.8335 5.13499 77.8335 5.43325C77.8335 5.78122 77.991 6.07948 78.3058 6.32803C78.6372 6.56 79.1674 6.75884 79.8965 6.92455L82.6554 7.54592C84.2958 7.92703 85.4972 8.48213 86.2594 9.21121C87.0216 9.94029 87.4027 10.9096 87.4027 12.1192C87.4027 13.2792 87.1044 14.265 86.5079 15.077C85.9114 15.8724 85.0912 16.4771 84.0473 16.8914C83.0034 17.2891 81.8103 17.4879 80.4681 17.4879C79.3745 17.4879 78.3306 17.3719 77.3364 17.14C76.3422 16.8914 75.4474 16.5434 74.6521 16.0961C73.8567 15.6487 73.1856 15.1349 72.6388 14.555L74.7018 11.6967C75.1161 12.1772 75.6214 12.6081 76.2179 12.9892C76.8311 13.3537 77.4939 13.6436 78.2063 13.8591C78.9355 14.0746 79.6728 14.1822 80.4184 14.1822C80.9985 14.1822 81.479 14.1243 81.86 14.0082C82.2577 13.8922 82.5477 13.7182 82.7299 13.4863C82.9123 13.2543 83.0034 12.9809 83.0034 12.6661C83.0034 12.3181 82.8791 12.0281 82.6305 11.7961C82.382 11.5476 81.9097 11.3405 81.2138 11.1748L78.1815 10.5037C77.2536 10.2883 76.4251 10.0066 75.696 9.6586C74.9836 9.29406 74.4201 8.81353 74.0058 8.21701C73.5917 7.60391 73.3845 6.8417 73.3845 5.93035C73.3845 4.90301 73.6662 3.99166 74.2295 3.19629C74.793 2.38436 75.6049 1.74642 76.6653 1.28246C77.7258 0.818497 78.9935 0.586517 80.4681 0.586517ZM103.905 0.835068L98.1142 11.2493V17.2394H93.8391V11.2493L88.0479 0.835068H92.4721L94.7836 5.33383L96.0015 8.06788L97.2442 5.33383L99.5557 0.835068H103.905Z" fill="white"/>
<path d="M110.249 13.9336H118.476V17.2394H105.974V0.835052H110.249V13.9336ZM120.926 17.2394V0.835052H133.702V4.14077H125.201V7.47134H131.962V10.5782H125.201V13.9336H134.025V17.2394H120.926ZM151.519 17.2394H147.119L145.976 13.536H140.359L139.191 17.2394H134.891L140.657 0.835052H145.777L151.519 17.2394ZM141.154 10.6279H145.181L143.168 3.99164L141.154 10.6279ZM161.255 0.835052C163.211 0.835052 164.727 1.29901 165.804 2.22693C166.898 3.13829 167.444 4.35618 167.444 5.88062C167.444 7.55419 166.907 8.83009 165.829 9.70829C164.752 10.5865 163.236 11.0256 161.28 11.0256L160.883 11.2493H157.627V17.2394H153.426V0.835052H161.255ZM160.659 8.21699C161.488 8.21699 162.11 8.05129 162.523 7.71989C162.938 7.3885 163.144 6.85825 163.144 6.12917C163.144 5.41666 162.938 4.8947 162.523 4.56331C162.11 4.23191 161.488 4.0662 160.659 4.0662H157.627V8.21699H160.659ZM163.169 9.11177L168.414 17.2394H163.691L159.491 10.0563L163.169 9.11177ZM185.352 0.835052V17.2394H180.604L175.509 8.36612L174.266 5.93033H174.242L174.341 8.96264V17.2394H170.563V0.835052H175.31L180.406 9.70829L181.648 12.1441H181.673L181.574 9.11177V0.835052H185.352Z" fill="#FFC43A"/>
<path d="M43.9398 24.5782C44.4892 24.5782 44.9715 24.6727 45.3866 24.862C45.8017 25.0513 46.1558 25.332 46.4488 25.7045L45.7437 26.5195C45.4935 26.202 45.2187 25.97 44.9196 25.8235C44.6265 25.6709 44.2847 25.5946 43.894 25.5946C43.6376 25.5946 43.424 25.6282 43.253 25.6953C43.0882 25.7624 42.9661 25.851 42.8867 25.9609C42.8134 26.0708 42.7768 26.1928 42.7768 26.3272C42.7768 26.492 42.8409 26.6324 42.9691 26.7484C43.0973 26.8583 43.3171 26.9498 43.6284 27.0231L44.7547 27.2795C45.353 27.4139 45.7803 27.6153 46.0367 27.8839C46.2993 28.1464 46.4305 28.4882 46.4305 28.9095C46.4305 29.3062 46.3268 29.6482 46.1192 29.9351C45.9115 30.2159 45.6217 30.4326 45.2492 30.5852C44.8768 30.7317 44.4496 30.805 43.9672 30.805C43.546 30.805 43.1584 30.7562 42.8043 30.6585C42.4563 30.5547 42.145 30.4142 41.8703 30.2373C41.5955 30.0603 41.3666 29.8557 41.1835 29.6237L41.8977 28.7721C42.0381 28.9674 42.2121 29.1414 42.4197 29.2941C42.6273 29.4467 42.8622 29.5688 43.1248 29.6604C43.3933 29.7458 43.6742 29.7886 43.9672 29.7886C44.2175 29.7886 44.4281 29.7611 44.5991 29.7061C44.7761 29.645 44.9074 29.5626 44.9928 29.4589C45.0844 29.349 45.1302 29.2178 45.1302 29.0651C45.1302 28.9065 45.0752 28.7721 44.9654 28.6622C44.8616 28.5462 44.6662 28.4578 44.3793 28.3967L43.1522 28.122C42.7981 28.0365 42.4929 27.9266 42.2365 27.7923C41.9863 27.6519 41.794 27.4748 41.6596 27.2612C41.5314 27.0414 41.4673 26.782 41.4673 26.4828C41.4673 26.1227 41.5651 25.7991 41.7604 25.5122C41.9557 25.2253 42.2365 24.9994 42.6028 24.8346C42.9753 24.6636 43.4208 24.5782 43.9398 24.5782ZM52.694 24.6697V25.6862H50.6702V30.7134H49.4066V25.6862H47.3737V24.6697H52.694ZM59.23 24.6697V28.3326C59.23 29.1567 59.0103 29.7764 58.5707 30.1915C58.1312 30.6005 57.4902 30.805 56.6477 30.805C55.8053 30.805 55.1643 30.6005 54.7248 30.1915C54.2852 29.7764 54.0654 29.1567 54.0654 28.3326V24.6697H55.3291V28.2776C55.3291 28.7843 55.4359 29.1597 55.6496 29.404C55.8694 29.6482 56.2021 29.7702 56.6477 29.7702C57.0933 29.7702 57.423 29.6482 57.6367 29.404C57.8503 29.1597 57.9572 28.7843 57.9572 28.2776V24.6697H59.23ZM63.4786 24.6697C64.4247 24.6697 65.1573 24.9323 65.6763 25.4572C66.1952 25.9762 66.4546 26.7209 66.4546 27.6916C66.4546 28.6561 66.1952 29.4009 65.6763 29.9259C65.1573 30.4509 64.4247 30.7134 63.4786 30.7134H61.1435V24.6697H63.4786ZM63.4145 29.7061C63.9883 29.7061 64.4187 29.5352 64.7056 29.1933C64.9986 28.8454 65.1452 28.3447 65.1452 27.6916C65.1452 27.0384 64.9986 26.5408 64.7056 26.199C64.4187 25.851 63.9883 25.677 63.4145 25.677H62.4072V29.7061H63.4145ZM72.6965 24.6697L70.5537 28.4516V30.7134H69.2901V28.4516L67.1473 24.6697H68.4934L69.464 26.4828L69.9219 27.426L70.3889 26.4828L71.3596 24.6697H72.6965ZM81.9737 30.7134H80.6642L80.1606 29.2391H77.8438L77.3402 30.7134H76.049L78.2559 24.6697H79.7668L81.9737 30.7134ZM78.1277 28.3051H79.8767L78.9976 25.6679L78.1277 28.3051ZM88.5201 24.6697V30.7134H87.0733L84.958 27.1605L84.436 26.1715H84.4269L84.4635 27.2154V30.7134H83.328V24.6697H84.7657L86.881 28.2135L87.403 29.2117H87.4213L87.3846 28.1677V24.6697H88.5201ZM95.4086 24.6697L93.2659 28.4516V30.7134H92.0022V28.4516L89.8594 24.6697H91.2055L92.1762 26.4828L92.634 27.426L93.101 26.4828L94.0717 24.6697H95.4086ZM97.8184 30.7134L96.0602 24.6697H97.4063L98.5967 29.6604L99.8055 24.6697H101.014L102.241 29.6604L103.423 24.6697H104.714L102.956 30.7134H101.536L100.694 27.4169L100.41 25.9884H100.392L100.108 27.4169L99.2744 30.7134H97.8184ZM111.338 24.6697V30.7134H110.074V24.6697H111.338ZM107.409 24.6697V30.7134H106.146V24.6697H107.409ZM110.733 27.1513V28.1677H106.778V27.1513H110.733ZM113.373 30.7134V24.6697H117.906V25.6862H114.637V27.1879H117.21V28.1586H114.637V29.697H118.034V30.7134H113.373ZM122.29 24.6697C122.974 24.6697 123.511 24.8346 123.902 25.1642C124.293 25.4939 124.488 25.9364 124.488 26.492C124.488 27.0842 124.293 27.5389 123.902 27.8564C123.511 28.1677 122.977 28.3234 122.3 28.3234L122.171 28.3967H120.871V30.7134H119.626V24.6697H122.29ZM122.144 27.4352C122.498 27.4352 122.76 27.3649 122.931 27.2246C123.108 27.078 123.197 26.8553 123.197 26.5561C123.197 26.2569 123.108 26.0371 122.931 25.8968C122.76 25.7503 122.498 25.677 122.144 25.677H120.871V27.4352H122.144ZM122.886 27.7007L124.845 30.7134H123.426L121.805 28.067L122.886 27.7007ZM126.307 30.7134V24.6697H130.841V25.6862H127.571V27.1879H130.144V28.1586H127.571V29.697H130.969V30.7134H126.307ZM140.365 24.6697L138.223 28.4516V30.7134H136.959V28.4516L134.816 24.6697H136.162L137.133 26.4828L137.591 27.426L138.058 26.4828L139.029 24.6697H140.365ZM143.973 24.5782C144.571 24.5782 145.087 24.7033 145.521 24.9536C145.954 25.2038 146.286 25.561 146.519 26.025C146.757 26.489 146.876 27.0444 146.876 27.6916C146.876 28.3387 146.757 28.8942 146.519 29.3582C146.286 29.8222 145.954 30.1793 145.521 30.4296C145.087 30.6798 144.571 30.805 143.973 30.805C143.374 30.805 142.856 30.6798 142.417 30.4296C141.982 30.1793 141.647 29.8222 141.409 29.3582C141.177 28.8942 141.061 28.3387 141.061 27.6916C141.061 27.0444 141.177 26.489 141.409 26.025C141.647 25.561 141.982 25.2038 142.417 24.9536C142.856 24.7033 143.374 24.5782 143.973 24.5782ZM143.973 25.6129C143.631 25.6129 143.342 25.6923 143.103 25.851C142.865 26.0097 142.682 26.2447 142.554 26.5561C142.431 26.8613 142.371 27.2399 142.371 27.6916C142.371 28.1373 142.431 28.5157 142.554 28.8271C142.682 29.1384 142.865 29.3735 143.103 29.5322C143.342 29.6908 143.631 29.7702 143.973 29.7702C144.308 29.7702 144.596 29.6908 144.834 29.5322C145.072 29.3735 145.251 29.1384 145.374 28.8271C145.503 28.5157 145.567 28.1373 145.567 27.6916C145.567 27.2399 145.503 26.8613 145.374 26.5561C145.251 26.2447 145.072 26.0097 144.834 25.851C144.596 25.6923 144.308 25.6129 143.973 25.6129ZM153.654 24.6697V28.3326C153.654 29.1567 153.434 29.7764 152.994 30.1915C152.555 30.6005 151.914 30.805 151.071 30.805C150.229 30.805 149.588 30.6005 149.148 30.1915C148.709 29.7764 148.489 29.1567 148.489 28.3326V24.6697H149.753V28.2776C149.753 28.7843 149.86 29.1597 150.073 29.404C150.293 29.6482 150.625 29.7702 151.071 29.7702C151.518 29.7702 151.847 29.6482 152.06 29.404C152.274 29.1597 152.381 28.7843 152.381 28.2776V24.6697H153.654ZM159.781 30.7134L158.023 24.6697H159.369L160.56 29.6604L161.768 24.6697H162.977L164.204 29.6604L165.385 24.6697H166.676L164.918 30.7134H163.499L162.657 27.4169L162.373 25.9884H162.354L162.07 27.4169L161.237 30.7134H159.781ZM172.899 30.7134H171.59L171.086 29.2391H168.77L168.266 30.7134H166.975L169.182 24.6697H170.693L172.899 30.7134ZM169.053 28.3051H170.802L169.923 25.6679L169.053 28.3051ZM179.445 24.6697V30.7134H177.999L175.883 27.1605L175.361 26.1715H175.352L175.389 27.2154V30.7134H174.253V24.6697H175.691L177.806 28.2135L178.328 29.2117H178.347L178.31 28.1677V24.6697H179.445ZM186.261 24.6697V25.6862H184.237V30.7134H182.974V25.6862H180.941V24.6697H186.261Z" fill="white" fill-opacity="0.6"/>
<path d="M23.6442 14.1214L23.7431 13.9963V9.54263L15.8287 12.5423L7.91437 9.54263V13.9962L8.01329 14.1211C8.09492 14.2246 10.0827 16.6521 15.8287 16.6521C21.5748 16.6521 23.5624 14.2244 23.6442 14.1214Z" fill="#FFC43A"/>
<path d="M30.9155 29.3073H4.2045C3.48296 29.3073 2.79098 29.0357 2.28078 28.5522C1.77057 28.0688 1.48394 27.4132 1.48394 26.7294C1.48394 26.0458 1.77057 25.39 2.28078 24.9066C2.79098 24.4231 3.48296 24.1516 4.2045 24.1516H30.9155C31.1122 24.1516 31.301 24.0775 31.4402 23.9457C31.5792 23.8138 31.6574 23.635 31.6574 23.4486C31.6574 23.262 31.5792 23.0832 31.4402 22.9513C31.301 22.8196 31.1122 22.7454 30.9155 22.7454H4.2045C3.0894 22.7454 2.01997 23.1652 1.23147 23.9123C0.442973 24.6595 0 25.6728 0 26.7294C0 27.786 0.442973 28.7995 1.23147 29.5465C2.01997 30.2936 3.0894 30.7134 4.2045 30.7134H30.9155C31.1122 30.7134 31.301 30.6394 31.4402 30.5075C31.5792 30.3757 31.6574 30.1968 31.6574 30.0104C31.6574 29.8239 31.5792 29.645 31.4402 29.5132C31.301 29.3813 31.1122 29.3073 30.9155 29.3073Z" fill="#FFC43A"/>
<path d="M2.47324 26.7294C2.47324 26.9449 2.51803 27.1582 2.60503 27.3572C2.69203 27.5563 2.81956 27.7371 2.98032 27.8894C3.14108 28.0418 3.33194 28.1626 3.54198 28.2451C3.75203 28.3275 3.97716 28.3699 4.20451 28.3699H30.9155V25.089H4.20451C3.74534 25.089 3.30499 25.2618 2.98032 25.5695C2.65565 25.8772 2.47324 26.2943 2.47324 26.7294Z" fill="#FFC43A"/>
<path d="M26.2163 13.137C26.8993 13.137 27.4529 12.6124 27.4529 11.9653C27.4529 11.3181 26.8993 10.7935 26.2163 10.7935C25.5333 10.7935 24.9797 11.3181 24.9797 11.9653C24.9797 12.6124 25.5333 13.137 26.2163 13.137Z" fill="#FFC43A"/>
<path d="M24.0671 8.41016L15.6526 5.37297L16.0048 4.49649L25.4229 7.89646L29.5265 6.34084L15.8287 1.14902L2.13095 6.34084L15.8287 11.5327L24.0671 8.41016Z" fill="#FFC43A"/>
<path d="M25.7217 9.0078V9.913C26.0466 9.83751 26.386 9.83751 26.7109 9.913V8.3616L25.4229 7.8967L24.067 8.41062L25.7217 9.0078Z" fill="#FFC43A"/>
<path d="M4.45181 18.5271C4.45181 18.7758 4.55605 19.0141 4.74158 19.19C4.92711 19.3658 5.17873 19.4645 5.44111 19.4645H23.5646L23.8943 17.5897H5.44111C5.17873 17.5897 4.92711 17.6885 4.74158 17.8643C4.55605 18.0401 4.45181 18.2786 4.45181 18.5271Z" fill="#FFC43A"/>
<path d="M27.7003 18.5271L26.8974 13.9628C26.457 14.1117 25.9757 14.1117 25.5351 13.9628L24.7323 18.5271H27.7003Z" fill="#FFC43A"/>
<path d="M5.4411 21.8081H26.9583C27.155 21.8081 27.3438 21.7339 27.483 21.6021C27.622 21.4702 27.7003 21.2915 27.7003 21.105C27.7003 20.9186 27.622 20.7397 27.483 20.6079C27.3438 20.476 27.155 20.402 26.9583 20.402H5.4411C4.91636 20.402 4.41309 20.2044 4.04204 19.8528C3.67098 19.5012 3.46253 19.0243 3.46253 18.5271C3.46253 18.0299 3.67098 17.5531 4.04204 17.2014C4.41309 16.8498 4.91636 16.6523 5.4411 16.6523H10.2293C9.33609 16.3182 8.5093 15.8428 7.78421 15.2462H5.4411C4.52279 15.2462 3.64208 15.5919 2.99273 16.2071C2.34338 16.8224 1.97858 17.6569 1.97858 18.5271C1.97858 19.3973 2.34338 20.2318 2.99273 20.8471C3.64208 21.4624 4.52279 21.8081 5.4411 21.8081Z" fill="#FFC43A"/>
<path d="M24.3066 15.2462H23.8736C23.1485 15.8428 22.3216 16.3183 21.4284 16.6523H24.0593L24.3066 15.2462Z" fill="#FFC43A"/>
</g>
<defs>
<clipPath id="clip0_3_20">
<rect width="187.59" height="30.4801" fill="white" transform="translate(0 0.494934)"/>
</clipPath>
</defs>
</svg>
