<svg width="25" height="25" viewBox="0 0 25 25" fill="none" xmlns="http://www.w3.org/2000/svg">
<path d="M22.284 18.8239L22.164 18.5839C21.828 17.7919 17.7 16.5919 17.364 16.5679L17.1 16.5919C16.596 16.6879 16.044 17.1439 14.964 18.0799C14.748 18.2719 14.46 18.3199 14.196 18.1759C12.78 17.3839 11.052 15.7999 10.188 14.8399C9.252 13.8079 8.124 12.1039 7.596 10.7359C7.5 10.4719 7.596 10.1839 7.788 9.99192C9.012 8.88792 9.54 8.35992 9.588 7.78392C9.612 7.44792 8.892 3.19992 8.148 2.79192L7.932 2.64792C7.452 2.33592 6.732 1.87992 5.94 2.04792C5.748 2.09592 5.556 2.16792 5.388 2.26392C4.86 2.59992 3.54 3.51192 2.94 4.68792C2.58 5.43192 2.412 12.1759 7.452 17.8639C12.444 23.5039 18.612 23.7439 19.524 23.5519H19.548L19.62 23.5279C20.868 23.0719 21.924 21.8959 22.332 21.3919C23.076 20.5039 22.572 19.4239 22.284 18.8239Z" fill="white"/>
</svg>
