<svg width="30" height="31" viewBox="0 0 30 31" fill="none" xmlns="http://www.w3.org/2000/svg">
<path fill-rule="evenodd" clip-rule="evenodd" d="M0 0.730011H30V30.73H0V0.730011ZM22.073 10.3755C21.6372 10.6547 20.6365 11.0603 20.143 11.0603C19.5795 10.4717 18.7862 10.105 17.9063 10.105C16.1975 10.105 14.8118 11.4907 14.8118 13.1988C14.8118 13.4362 14.8393 13.6677 14.8902 13.8897C12.5722 13.8288 10.0365 12.667 8.51033 10.6785C7.572 12.3027 8.384 14.109 9.44883 14.7672C9.08433 14.7947 8.41333 14.7252 8.0975 14.417C8.07633 15.495 8.59467 16.9233 10.4847 17.4415C10.1207 17.6373 9.47633 17.5812 9.19617 17.5395C9.2945 18.4495 10.5688 19.6392 11.9623 19.6392C11.4657 20.2137 9.597 21.2557 7.5 20.9242C8.92417 21.7907 10.584 22.2925 12.3408 22.2925C17.3333 22.2925 21.2105 18.2463 21.0018 13.2548C21.001 13.2493 21.001 13.2438 21.0005 13.2378C21.001 13.225 21.0018 13.2122 21.0018 13.1988C21.0018 13.1833 21.0005 13.1687 21 13.1537C21.4545 12.8428 22.0643 12.293 22.5 11.5693C22.2473 11.7085 21.4893 11.9872 20.784 12.0563C21.2367 11.812 21.9073 11.0118 22.073 10.3755Z" fill="#466BB8"/>
<path d="M22.073 10.3755C21.6372 10.6547 20.6365 11.0603 20.143 11.0603C19.5795 10.4717 18.7862 10.105 17.9063 10.105C16.1975 10.105 14.8118 11.4907 14.8118 13.1988C14.8118 13.4362 14.8393 13.6677 14.8902 13.8897C12.5722 13.8288 10.0365 12.667 8.51033 10.6785C7.572 12.3027 8.384 14.109 9.44883 14.7672C9.08433 14.7947 8.41333 14.7252 8.0975 14.417C8.07633 15.495 8.59467 16.9233 10.4847 17.4415C10.1207 17.6373 9.47633 17.5812 9.19617 17.5395C9.2945 18.4495 10.5688 19.6392 11.9623 19.6392C11.4657 20.2137 9.597 21.2557 7.5 20.9242C8.92417 21.7907 10.584 22.2925 12.3408 22.2925C17.3333 22.2925 21.2105 18.2463 21.0018 13.2548C21.001 13.2493 21.001 13.2438 21.0005 13.2378C21.001 13.225 21.0018 13.2122 21.0018 13.1988C21.0018 13.1833 21.0005 13.1687 21 13.1537C21.4545 12.8428 22.0643 12.293 22.5 11.5693C22.2473 11.7085 21.4893 11.9872 20.784 12.0563C21.2367 11.812 21.9073 11.0118 22.073 10.3755Z" fill="white"/>
</svg>
