<svg width="30" height="31" viewBox="0 0 30 31" fill="none" xmlns="http://www.w3.org/2000/svg">
<path fill-rule="evenodd" clip-rule="evenodd" d="M0 0.730011H30V30.73H0V0.730011ZM23.2799 11.4995C23.1378 10.2554 22.8412 9.89274 22.6311 9.72394C22.2975 9.46135 21.6919 9.36757 20.8825 9.31131C19.5849 9.22378 17.3789 9.16751 15 9.16751C12.6149 9.16751 10.4151 9.21753 9.11754 9.31131C8.30808 9.36757 7.70254 9.46135 7.36887 9.72394C7.15878 9.89274 6.86836 10.2554 6.72007 11.4995C6.50998 13.2938 6.50998 17.3826 6.72007 19.1769C6.86836 20.4211 7.15878 20.7837 7.36887 20.9525C7.70254 21.2151 8.30808 21.3089 9.11754 21.3651C10.4151 21.4527 12.6149 21.5089 15 21.5089C17.3851 21.5089 19.5849 21.4527 20.8825 21.3651C21.6919 21.3089 22.2975 21.2151 22.6311 20.9525C22.8412 20.79 23.1316 20.4211 23.2799 19.1769C23.49 17.3826 23.49 13.2938 23.2799 11.4995ZM12.9609 18.0203V12.6499L18.0525 15.332L12.9609 18.0203Z" fill="#466BB8"/>
<path d="M23.2799 11.4995C23.1378 10.2554 22.8412 9.89274 22.6311 9.72394C22.2975 9.46135 21.6919 9.36757 20.8825 9.31131C19.5849 9.22378 17.3789 9.16751 15 9.16751C12.6149 9.16751 10.4151 9.21753 9.11754 9.31131C8.30808 9.36757 7.70254 9.46135 7.36887 9.72394C7.15878 9.89274 6.86836 10.2554 6.72007 11.4995C6.50998 13.2938 6.50998 17.3826 6.72007 19.1769C6.86836 20.4211 7.15878 20.7837 7.36887 20.9525C7.70254 21.2151 8.30808 21.3089 9.11754 21.3651C10.4151 21.4527 12.6149 21.5089 15 21.5089C17.3851 21.5089 19.5849 21.4527 20.8825 21.3651C21.6919 21.3089 22.2975 21.2151 22.6311 20.9525C22.8412 20.79 23.1316 20.4211 23.2799 19.1769C23.49 17.3826 23.49 13.2938 23.2799 11.4995ZM12.9609 18.0203V12.6499L18.0525 15.332L12.9609 18.0203Z" fill="white"/>
</svg>
